# xmcd
#
# Track frame offsets:
# 150
# 12022
# 23998
# 34911
# 46096
# 62841
# 73064
# 86196
# 98324
# 109132
# 123509
# 136871
# 149733
# 161908
# 175798
# 189366
# 205655
# 218868
# 234993
# 249248
# 259865
# 273530
# 286820
#
# Disc length: 4088 seconds
#
#
# Revision: 0
# Processed by: cddbd v1.5.1PL0 Copyright (c) Steve Scherf et al.
# Submitted via: FreeRIP 2.52 
#
DISCID=4a0ff617
DTITLE=PAUL MAURIAT - Cent Mille Chansons (1968) - Gone Is Love (1970)
DYEAR=1968
DGENRE=Instrumental Pop
TTITLE0=Puisque Tu M'aimes
TTITLE1=Monia "Monja"
TTITLE2=J'ai Peur, Je T'aime
TTITLE3=Siffler Sur La Colline "Uno Tranquillo"
TTITLE4=Valse D'ete
TTITLE5=Irresistiblement
TTITLE6=Le Temps Des Fleurs
TTITLE7=Long Sera L'hiver
TTITLE8=Un Rayon De Soleil
TTITLE9=Hey Jude
TTITLE10=Cent Mille Chansons
TTITLE11=Pour Etre Sincere
TTITLE12=Gone Is Love
TTITLE13=Home Again
TTITLE14=My House And The River
TTITLE15=Could This Be Me
TTITLE16=Raindrops Keep Fallin' On My Head
TTITLE17=I Gotta Get Back To Lovin' You
TTITLE18=Bridge Over Troubled Water
TTITLE19=She Is A Little Bit Sweeter
TTITLE20=Let It Be
TTITLE21=Classical Gas
TTITLE22=Bridge Over Troubled Water ~ Let It Be
EXTD=Russian out of print CD edition of two famous Paul Mauriat albums.\nCent Mille Chansons (1968) AND Gone Is Love (1970]\n
EXTT0=
EXTT1=
EXTT2=
EXTT3=
EXTT4=
EXTT5=
EXTT6=
EXTT7=
EXTT8=
EXTT9=
EXTT10=
EXTT11=
EXTT12=
EXTT13=
EXTT14=
EXTT15=
EXTT16=
EXTT17=
EXTT18=
EXTT19=
EXTT20=
EXTT21=
EXTT22=
PLAYORDER=
